# xmcd CD database file
#
# Track frame offsets:
#	150
#	23550
#	43416
#	60285
#	79019
#	94332
#	108950
#	125059
#	144445
#	162507
#	183183
#	197745
#
# Disc length: 2780 seconds
#
# Revision: 0
# Processed by: cddbd v1.5.2PL0 Copyright (c) Steve Scherf et al.
# Submitted via: CdAid (MTCDDB.DLL V2003.12.21)
#
DISCID=9e0ada0c
DTITLE=Various Artist - Vigilante - A Música que você procura
DYEAR=2009
DGENRE=Pop
TTITLE0=Maçã
TTITLE1=No Corredor, Ali
TTITLE2=Favorite Song
TTITLE3=I've Got Tonight
TTITLE4=As Coisas Que Ela Diz
TTITLE5=Bons Garotos
TTITLE6=Let The Things Go
TTITLE7=Can You Dance, Boy?
TTITLE8=Rockstar
TTITLE9=Vaccine
TTITLE10=Dilema
TTITLE11=Amor em Fúria
EXTD=ID3G:  13 YEAR: 2009
EXTT0=
EXTT1=
EXTT2=
EXTT3=
EXTT4=
EXTT5=
EXTT6=
EXTT7=
EXTT8=
EXTT9=
EXTT10=
EXTT11=
PLAYORDER=
